# Blender v2.93.4 OBJ File: ''
# www.blender.org
mtllib ken_house.mtl
o chimmney_Cube.002
v 0.684174 -0.264791 0.023508
v 0.684174 3.814860 0.023508
v 0.684174 -0.264791 0.381255
v 0.684174 3.814860 0.381255
v 0.326427 -0.264791 0.023508
v 0.326427 3.814860 0.023508
v 0.326427 -0.264791 0.381255
v 0.326427 3.814860 0.381255
v 0.613604 -0.128872 0.081441
v 0.613604 3.542814 0.081441
v 0.613604 -0.128872 0.403414
v 0.613604 3.542814 0.403414
v 0.291632 -0.128872 0.081441
v 0.291632 3.542814 0.081441
v 0.291632 -0.128872 0.403414
v 0.291632 3.542814 0.403414
v 0.613604 -0.128872 0.081441
v 0.613604 3.542814 0.081441
v 0.613604 -0.128872 0.403414
v 0.613604 3.542814 0.403414
v 0.291632 -0.128872 0.081441
v 0.291632 3.542814 0.081441
v 0.291632 -0.128872 0.403414
v 0.291632 3.542814 0.403414
vt 0.375000 0.000000
vt 0.375000 0.250000
vt 0.486021 0.250000
vt 0.486021 0.000000
vt 0.375000 0.500000
vt 0.486021 0.500000
vt 0.375000 0.750000
vt 0.486021 0.750000
vt 0.375000 1.000000
vt 0.486021 1.000000
vt 0.125000 0.500000
vt 0.125000 0.750000
vt 0.875000 0.750000
vt 0.875000 0.500000
vt 0.375000 0.000000
vt 0.375000 0.250000
vt 0.486021 0.250000
vt 0.486021 0.000000
vt 0.375000 0.500000
vt 0.486021 0.500000
vt 0.375000 0.750000
vt 0.486021 0.750000
vt 0.375000 1.000000
vt 0.486021 1.000000
vt 0.125000 0.500000
vt 0.125000 0.750000
vt 0.875000 0.750000
vt 0.875000 0.500000
vt 0.375000 0.000000
vt 0.486021 0.000000
vt 0.486021 0.250000
vt 0.375000 0.250000
vt 0.486021 0.500000
vt 0.375000 0.500000
vt 0.486021 0.750000
vt 0.375000 0.750000
vt 0.486021 1.000000
vt 0.375000 1.000000
vt 0.125000 0.500000
vt 0.125000 0.750000
vt 0.875000 0.500000
vt 0.875000 0.750000
vn -1.0000 0.0000 0.0000
vn 0.0000 0.0000 -1.0000
vn 1.0000 0.0000 0.0000
vn 0.0000 0.0000 1.0000
vn 0.0000 1.0000 0.0000
vn 0.0000 -1.0000 0.0000
usemtl Material.004
s off
f 1/1/1 3/2/1 4/3/1 2/4/1
f 3/2/2 7/5/2 8/6/2 4/3/2
f 7/5/3 5/7/3 6/8/3 8/6/3
f 5/7/4 1/9/4 2/10/4 6/8/4
f 3/11/5 1/12/5 5/7/5 7/5/5
f 8/6/6 6/8/6 2/13/6 4/14/6
f 9/15/1 11/16/1 12/17/1 10/18/1
f 11/16/2 15/19/2 16/20/2 12/17/2
f 15/19/3 13/21/3 14/22/3 16/20/3
f 13/21/4 9/23/4 10/24/4 14/22/4
f 11/25/5 9/26/5 13/21/5 15/19/5
f 16/20/6 14/22/6 10/27/6 12/28/6
f 17/29/3 18/30/3 20/31/3 19/32/3
f 19/32/4 20/31/4 24/33/4 23/34/4
f 23/34/1 24/33/1 22/35/1 21/36/1
f 21/36/2 22/35/2 18/37/2 17/38/2
f 19/39/6 23/34/6 21/36/6 17/40/6
f 24/33/5 20/41/5 18/42/5 22/35/5
o chimmney.001_Cube.003
v -0.243920 0.794315 1.033347
v -0.852803 0.794315 1.033347
v -0.243920 0.033212 1.033347
v -0.852803 0.033212 1.033347
v -0.243920 0.794315 0.973245
v -0.852803 0.794315 0.973245
v -0.243920 0.033212 0.973245
v -0.852803 0.033212 0.973245
v -0.221681 0.824323 0.990296
v -0.769676 0.824323 0.990296
v -0.221681 0.139330 0.990296
v -0.769676 0.139330 0.990296
v -0.221681 0.824323 0.936204
v -0.769676 0.824323 0.936204
v -0.221681 0.139330 0.936204
v -0.769676 0.139330 0.936204
v -0.243920 0.794315 1.033347
v -0.852803 0.794315 1.033347
v -0.243920 0.033212 1.033347
v -0.852803 0.033212 1.033347
v -0.221681 0.824323 0.990296
v -0.769676 0.824323 0.990296
v -0.221681 0.139330 0.990296
v -0.769676 0.139330 0.990296
v -0.221681 0.824323 0.936204
v -0.769676 0.824323 0.936204
v -0.221681 0.139330 0.936204
v -0.769676 0.139330 0.936204
vt 0.000000 0.000000
vt 0.000000 1.000000
vt 1.000000 1.000000
vt 1.000000 0.000000
vt 1.000000 0.000000
vt 1.000000 1.000000
vt 0.000000 1.000000
vt 0.000000 0.000000
vt 0.000000 0.000000
vt 1.000000 0.000000
vt 1.000000 1.000000
vt 0.000000 1.000000
vt 0.000000 0.000000
vt 0.000000 1.000000
vt 1.000000 1.000000
vt 1.000000 0.000000
vt 1.000000 0.000000
vt 0.000000 0.000000
vt 0.000000 1.000000
vt 1.000000 1.000000
vt 0.000000 0.000000
vt 0.000000 1.000000
vt 1.000000 1.000000
vt 1.000000 0.000000
vt 0.000000 0.000000
vt 1.000000 0.000000
vt 1.000000 1.000000
vt 0.000000 1.000000
vn 0.0000 0.0000 -1.0000
vn -1.0000 0.0000 0.0000
vn 1.0000 0.0000 0.0000
vn 0.0000 -1.0000 0.0000
vn 0.0000 1.0000 0.0000
vn 0.0000 0.0000 1.0000
usemtl Material
s off
f 29/43/7 31/44/7 32/45/7 30/46/7
f 26/47/8 30/46/8 32/45/8 28/48/8
f 27/49/9 31/44/9 29/43/9 25/50/9
f 28/48/10 32/45/10 31/44/10 27/49/10
f 25/50/11 29/43/11 30/46/11 26/47/11
f 33/51/12 34/52/12 36/53/12 35/54/12
f 37/55/7 39/56/7 40/57/7 38/58/7
f 34/52/8 38/58/8 40/57/8 36/53/8
f 35/54/9 39/56/9 37/55/9 33/51/9
f 36/53/10 40/57/10 39/56/10 35/54/10
f 33/51/11 37/55/11 38/58/11 34/52/11
f 25/50/12 26/47/12 42/59/12 41/60/12
f 28/48/12 27/49/12 43/61/12 44/62/12
f 27/49/12 25/50/12 41/60/12 43/61/12
f 26/47/12 28/48/12 44/62/12 42/59/12
f 41/60/12 42/59/12 44/62/12 43/61/12
f 45/63/7 47/64/7 48/65/7 46/66/7
f 49/67/12 50/68/12 52/69/12 51/70/12
f 46/66/9 48/65/9 52/69/9 50/68/9
f 47/64/8 45/63/8 49/67/8 51/70/8
f 48/65/11 47/64/11 51/70/11 52/69/11
f 45/63/10 46/66/10 50/68/10 49/67/10
o chimmney.002_Cube.004
v 0.139129 0.202933 0.999957
v 0.803159 0.202933 0.999957
v 0.139129 -1.005623 0.999957
v 0.803159 -1.005623 0.999957
v 0.139129 0.202933 1.011498
v 0.803159 0.202933 1.011498
v 0.139129 -1.005623 1.011498
v 0.803159 -1.005623 1.011498
vt 0.000000 0.000000
vt 0.000000 1.000000
vt 1.000000 1.000000
vt 1.000000 0.000000
vt 0.000000 0.000000
vt 1.000000 0.000000
vt 1.000000 1.000000
vt 0.000000 1.000000
vn 0.0000 0.0000 1.0000
vn 0.0000 -0.0000 -1.0000
vn 0.0000 1.0000 0.0000
vn 0.0000 -1.0000 0.0000
vn -1.0000 -0.0000 0.0000
vn 1.0000 -0.0000 0.0000
usemtl Material.003
s off
f 53/71/13 55/72/13 56/73/13 54/74/13
f 57/75/14 58/76/14 60/77/14 59/78/14
f 56/73/15 55/72/15 59/78/15 60/77/15
f 53/71/16 54/74/16 58/76/16 57/75/16
f 54/74/17 56/73/17 60/77/17 58/76/17
f 55/72/18 53/71/18 57/75/18 59/78/18
o house_Cube
v 1.000000 1.000000 -1.000000
v 1.000000 -1.000000 -1.000000
v 1.000000 1.000000 1.000000
v 1.000000 -1.000000 1.000000
v -1.000000 1.000000 -1.000000
v -1.000000 -1.000000 -1.000000
v -1.000000 1.000000 1.000000
v -1.000000 -1.000000 1.000000
vt 0.625000 0.500000
vt 0.875000 0.500000
vt 0.875000 0.750000
vt 0.625000 0.750000
vt 0.375000 0.750000
vt 0.625000 1.000000
vt 0.375000 1.000000
vt 0.375000 0.000000
vt 0.625000 0.000000
vt 0.625000 0.250000
vt 0.375000 0.250000
vt 0.125000 0.500000
vt 0.375000 0.500000
vt 0.125000 0.750000
vn 0.0000 1.0000 0.0000
vn 0.0000 0.0000 1.0000
vn -1.0000 0.0000 0.0000
vn 0.0000 -1.0000 0.0000
vn 1.0000 0.0000 0.0000
vn 0.0000 0.0000 -1.0000
usemtl Material.002
s off
f 61/79/19 65/80/19 67/81/19 63/82/19
f 64/83/20 63/82/20 67/84/20 68/85/20
f 68/86/21 67/87/21 65/88/21 66/89/21
f 66/90/22 62/91/22 64/83/22 68/92/22
f 62/91/23 61/79/23 63/82/23 64/83/23
f 66/89/24 65/88/24 61/79/24 62/91/24
o roof_Cube.001
v 0.000000 2.989508 -1.000089
v 1.000089 0.989330 -1.000089
v 0.000000 2.989508 1.000089
v 1.000089 0.989330 1.000089
v 0.000000 2.989508 -1.000089
v -1.000089 0.989330 -1.000089
v 0.000000 2.989508 1.000089
v -1.000089 0.989330 1.000089
vt 0.625000 0.500000
vt 0.875000 0.500000
vt 0.875000 0.750000
vt 0.625000 0.750000
vt 0.375000 0.750000
vt 0.625000 1.000000
vt 0.375000 1.000000
vt 0.375000 0.000000
vt 0.625000 0.000000
vt 0.625000 0.250000
vt 0.375000 0.250000
vt 0.125000 0.500000
vt 0.375000 0.500000
vt 0.125000 0.750000
vn 0.0000 0.0000 1.0000
vn -0.8944 0.4472 0.0000
vn 0.0000 -1.0000 0.0000
vn 0.8944 0.4472 0.0000
vn 0.0000 0.0000 -1.0000
usemtl Material.001
s off
f 69/93/25 73/94/25 75/95/25 71/96/25
f 72/97/25 71/96/25 75/98/25 76/99/25
f 76/100/26 75/101/26 73/102/26 74/103/26
f 74/104/27 70/105/27 72/97/27 76/106/27
f 70/105/28 69/93/28 71/96/28 72/97/28
f 74/103/29 73/102/29 69/93/29 70/105/29
o Plane
v -11.707659 -1.016894 12.436158
v 11.163776 -1.016894 12.436158
v -11.707659 -1.016894 -10.435277
v 11.163776 -1.016894 -10.435277
vt 0.000000 0.000000
vt 1.000000 0.000000
vt 1.000000 1.000000
vt 0.000000 1.000000
vn 0.0000 1.0000 0.0000
usemtl Material.005
s off
f 77/107/30 78/108/30 80/109/30 79/110/30
